<svg xmlns="http://www.w3.org/2000/svg" width="103.641" height="92.71" viewBox="908 3377 103.641 92.71"><g data-name="Group 15"><path d="M998.447 3451.164c2.564-3.93 3.977-8.31 3.977-12.336a2.04 2.04 0 0 0-4.078 0c0 6.654-5.142 14.533-11.228 17.205a2.038 2.038 0 1 0 1.639 3.733c3.684-1.617 7.126-4.672 9.69-8.602Zm0 0" fill-rule="evenodd" data-name="Path 9"/><path d="M1009.602 3435.922a2.039 2.039 0 0 0-2.038 2.038c0 10.57-7.87 22.623-17.544 26.869a2.038 2.038 0 1 0 1.639 3.733c5.369-2.356 10.396-6.824 14.154-12.579 3.758-5.755 5.828-12.156 5.828-18.022 0-1.126-.913-2.04-2.039-2.04Zm0 0" fill-rule="evenodd" data-name="Path 10"/><path d="m917.155 3457.036-4.36-2.386 3.478-6.456a2.038 2.038 0 1 0-3.589-1.934l-4.44 8.239a2.039 2.039 0 0 0 .816 2.755l4.267 2.335-4.268 7.024a2.039 2.039 0 0 0 3.485 2.117l5.375-8.847a2.042 2.042 0 0 0-.764-2.847Zm0 0" fill-rule="evenodd" data-name="Path 11"/><path d="M933.237 3394.567c-2.565 3.93-3.978 8.31-3.978 12.334a2.038 2.038 0 0 0 4.077 0c0-6.654 5.142-14.53 11.228-17.2a2.039 2.039 0 0 0-1.638-3.734c-3.682 1.616-7.123 4.67-9.689 8.6Zm0 0" fill-rule="evenodd" data-name="Path 12"/><path d="M924.123 3407.774c0-10.571 7.868-22.623 17.54-26.869a2.039 2.039 0 0 0-1.64-3.733c-5.369 2.357-10.395 6.824-14.151 12.58-3.757 5.755-5.825 12.155-5.825 18.022a2.039 2.039 0 0 0 4.076 0Zm0 0" fill-rule="evenodd" data-name="Path 13"/><path d="M990.922 3433.653v-.002l.023-28.006v-8.132c0-1.485-.623-2.856-1.71-3.76-1.102-.915-2.59-1.282-4.086-1.005l-36.246 6.747c-2.832.532-5.051 3.177-5.051 6.022v38.065c-2.489-1.546-5.799-2.047-9.289-1.37h-.001c-7.056 1.374-12.583 7.007-12.583 12.822 0 2.55 1.084 4.847 3.052 6.47 1.907 1.573 4.477 2.4 7.314 2.4.973 0 1.977-.097 2.995-.294 7.06-1.375 12.589-7.008 12.589-12.823v-32.342a5.163 5.163 0 0 0 1.724-.033l8.725-1.625a2.04 2.04 0 0 0-.746-4.008l-8.722 1.624c-.308.058-.572.01-.743-.132-.197-.164-.238-.427-.238-.62v-8.134c0-.885.823-1.845 1.724-2.015l36.24-6.745c.303-.056.564-.01.734.131.199.165.24.432.24.625v8.13c0 .888-.819 1.848-1.718 2.015l-8.788 1.636a2.038 2.038 0 1 0 .746 4.009l8.787-1.636c.331-.062.656-.155.969-.272l-.013 14.958c-2.474-1.6-5.763-2.193-9.233-1.628h-.002c-7.093 1.159-12.649 6.645-12.649 12.489 0 2.547 1.083 4.87 3.048 6.54 1.994 1.695 4.718 2.594 7.711 2.594.832 0 1.683-.069 2.546-.21 7.093-1.152 12.648-6.636 12.65-12.485Zm-56.359 25.954c-2.75.534-5.344.067-6.938-1.247-1.026-.847-1.568-1.997-1.568-3.325 0-3.8 4.25-7.84 9.283-8.821 2.753-.533 5.35-.066 6.944 1.25 1.025.845 1.568 1.994 1.568 3.323 0 3.8-4.254 7.84-9.289 8.82Zm43.052-17.492c-2.748.45-5.35-.099-6.96-1.467-1.054-.896-1.611-2.083-1.611-3.434 0-3.771 4.226-7.647 9.23-8.465h-.002c2.752-.447 5.354.104 6.964 1.473 1.053.895 1.609 2.08 1.609 3.427 0 3.776-4.226 7.653-9.23 8.466Zm0 0" fill-rule="evenodd" data-name="Path 14"/><path d="M967.399 3415.071c.095 0 .193-.007.29-.02l.04-.006a2.04 2.04 0 0 0-.576-4.036l-.04.005a2.04 2.04 0 0 0 .286 4.057Zm0 0" fill-rule="evenodd" data-name="Path 15"/><path d="m996.442 3390.163 4.265 2.33-4.268 7.029a2.038 2.038 0 1 0 3.485 2.116l5.376-8.853a2.041 2.041 0 0 0-.766-2.847l-4.36-2.382 3.48-6.46a2.037 2.037 0 1 0-3.59-1.933l-4.44 8.244a2.039 2.039 0 0 0 .818 2.756Zm0 0" fill-rule="evenodd" data-name="Path 16"/></g></svg>