<svg xmlns="http://www.w3.org/2000/svg" width="99.42" height="102.216"><path d="M98.83 54.006a2.013 2.013 0 0 0-2.847 0L53.978 96.04a7.303 7.303 0 0 1-5.208 2.15h-.004a7.321 7.321 0 0 1-5.216-2.15c-2.874-2.877-2.874-7.563 0-10.443l12.418-12.423 18.778-18.792c4.445-4.448 4.445-11.686 0-16.135a11.318 11.318 0 0 0-8.062-3.33 11.318 11.318 0 0 0-8.063 3.33L16.61 80.29a7.32 7.32 0 0 1-5.215 2.15 7.318 7.318 0 0 1-5.214-2.15c-2.877-2.88-2.877-7.564-.001-10.443l6.99-6.99.331.332a4.664 4.664 0 0 0 3.323 1.375 4.666 4.666 0 0 0 3.323-1.375l2.933-2.935a8.95 8.95 0 0 0 2.711.423 8.862 8.862 0 0 0 6.29-2.602l20.822-20.84a4.355 4.355 0 0 0 0-6.15l-.606-.609 6.461-6.467h.002l7.885-7.892 4.494-4.497c2.652-2.655 2.652-6.974.002-9.628A6.746 6.746 0 0 0 66.329 0a6.743 6.743 0 0 0-4.809 1.99l-4.5 4.504-7.884 7.885-6.462 6.466-.605-.605a4.312 4.312 0 0 0-3.071-1.27c-1.164 0-2.255.451-3.072 1.27l-3.827 3.83a2.014 2.014 0 0 0 2.848 2.845l3.827-3.828a.307.307 0 0 1 .224-.09c.06 0 .15.015.223.09L50.057 33.93a.327.327 0 0 1 0 .457l-20.824 20.84a4.878 4.878 0 0 1-5.694.874l-.013-.006a4.841 4.841 0 0 1-1.177-.867l-4.4-4.409a4.845 4.845 0 0 1-.885-1.212 4.875 4.875 0 0 1-.534-2.232c0-1.307.504-2.533 1.42-3.45l5.41-5.413a2.014 2.014 0 0 0-2.849-2.847l-5.409 5.415a8.843 8.843 0 0 0-2.598 6.295c0 .936.144 1.848.418 2.714L9.99 53.024a4.657 4.657 0 0 0-1.377 3.325c0 1.26.49 2.441 1.373 3.32l.339.34-6.992 6.992c-4.444 4.448-4.444 11.686 0 16.134a11.316 11.316 0 0 0 8.063 3.332c3.053 0 5.917-1.183 8.063-3.332l42.01-42.043a7.32 7.32 0 0 1 5.215-2.15c1.976 0 3.828.764 5.214 2.15 2.877 2.88 2.877 7.564 0 10.442L53.121 70.327l-12.42 12.424c-4.441 4.451-4.44 11.689.001 16.133a11.318 11.318 0 0 0 8.064 3.332h.005a11.305 11.305 0 0 0 8.057-3.332L98.83 56.853a2.013 2.013 0 0 0 0-2.847ZM57.337 19.737l-.25-.25-3.681-3.684 5.04-5.04 3.93 3.932-5.04 5.042ZM64.37 4.834a2.742 2.742 0 0 1 1.96-.807c.744 0 1.44.286 1.96.81a2.788 2.788 0 0 1 0 3.936l-3.07 3.073-3.93-3.93 3.08-3.082ZM50.559 18.651l1.768 1.77 2.164 2.164-5.039 5.043-1.946-1.947-1.985-1.987 5.038-5.043ZM12.834 55.874l2.237-2.238.03.031 4.4 4.41.032.03-2.232 2.236a.669.669 0 0 1-.475.194.67.67 0 0 1-.476-.194l-3.52-3.523a.665.665 0 0 1-.19-.47c0-.106.025-.306.194-.476Zm0 0" fill-rule="evenodd" data-name="Path 7"/></svg>