<svg xmlns="http://www.w3.org/2000/svg" width="123.236" height="88.846"><g data-name="CompositeLayer"><path d="m1711.626 800.55 9.212 8.295a2.417 2.417 0 0 0 1.623.624 2.428 2.428 0 0 0 1.626-4.231l-9.214-8.295a2.426 2.426 0 1 0-3.247 3.608Zm0 0" fill-rule="evenodd" fill="url(&quot;#a&quot;)" transform="translate(-1707.003 -796.093)" data-name="Path 20"/><path d="M1710.412 882.77h-13.031a2.428 2.428 0 0 0 0 4.854h13.031a2.427 2.427 0 1 0 0-4.854Zm0 0" fill-rule="evenodd" fill="url(&quot;#b&quot;)" transform="translate(-1694.953 -861.735)" data-name="Path 19"/><path d="m1720.838 935.38-9.212 8.295a2.427 2.427 0 1 0 3.248 3.608l9.213-8.295a2.428 2.428 0 0 0-3.249-3.608Zm0 0" fill-rule="evenodd" fill="url(&quot;#c&quot;)" transform="translate(-1707.003 -901.21)" data-name="Path 21"/><path d="M2135.068 809.469c.58 0 1.16-.206 1.624-.624l9.212-8.294a2.426 2.426 0 0 0 .18-3.429 2.426 2.426 0 0 0-3.427-.179l-9.213 8.295a2.428 2.428 0 0 0 1.624 4.23Zm0 0" fill-rule="evenodd" fill="url(&quot;#d&quot;)" transform="translate(-2027.292 -796.093)" data-name="Path 26"/><path d="M2148.1 882.77h-13.032a2.427 2.427 0 0 0 0 4.854h13.032a2.427 2.427 0 1 0 0-4.854Zm0 0" fill-rule="evenodd" fill="url(&quot;#e&quot;)" transform="translate(-2027.292 -861.735)" data-name="Path 25"/><path d="M1961.025 842.06a2.427 2.427 0 0 0 2.588 2.422c1.29-.083 2.266-1.211 2.266-2.504v-4.565a23.407 23.407 0 0 0 7.45 3.864v31.869c0 2.002-1.537 3.726-3.537 3.823a3.73 3.73 0 0 1-3.913-3.718v-10.739c0-1.292-.975-2.422-2.265-2.506a2.427 2.427 0 0 0-2.59 2.423v10.822c0 3.887 2.602 7.177 6.156 8.226v.32a2.427 2.427 0 0 0 4.854 0v-.32c3.55-1.05 6.148-4.339 6.148-8.226v-31.036c.663.056 1.334.087 2.011.087h7.214c3.065 0 5.56-2.497 5.56-5.568V800.94a5.565 5.565 0 0 0-5.56-5.561h-7.214c-12.933 0-23.455 10.525-23.455 23.462a23.34 23.34 0 0 0 4.287 13.505v9.715Zm21.596-41.827h4.786c.383 0 .706.324.706.707v35.794a.72.72 0 0 1-.706.714h-4.786v-37.215Zm-4.854.164v36.888c-9.114-1.195-16.175-9.008-16.175-18.444 0-9.437 7.061-17.25 16.175-18.444Z" fill-rule="evenodd" fill="url(&quot;#f&quot;)" transform="translate(-1893.728 -795.379)" data-name="Path 23"/><path d="M1815.581 881.476v.322a2.427 2.427 0 0 0 4.854 0v-.322c3.555-1.048 6.156-4.338 6.156-8.225v-10.74c0-1.292-.976-2.421-2.266-2.505a2.428 2.428 0 0 0-2.59 2.423v10.822a3.73 3.73 0 0 1-3.91 3.718c-2-.095-3.538-1.819-3.538-3.822v-31.87a23.403 23.403 0 0 0 7.449-3.864v4.564c0 1.293.976 2.422 2.266 2.505a2.427 2.427 0 0 0 2.589-2.422v-9.714a23.335 23.335 0 0 0 4.286-13.506c0-12.936-10.522-23.461-23.455-23.461h-7.213a5.56 5.56 0 0 0-5.561 5.56v35.795c0 3.071 2.495 5.568 5.56 5.568h7.214c.677 0 1.347-.03 2.01-.087v31.036c0 3.886 2.599 7.175 6.15 8.225Zm-10.587-44.028h-4.785a.718.718 0 0 1-.706-.714V800.94c0-.383.323-.707.706-.707h4.785v37.215Zm4.856-37.051c9.112 1.194 16.173 9.007 16.173 18.444 0 9.436-7.061 17.25-16.173 18.444v-36.888Z" fill-rule="evenodd" fill="url(&quot;#g&quot;)" transform="translate(-1770.652 -795.379)" data-name="Path 17"/><path d="m2145.904 943.675-9.212-8.295a2.427 2.427 0 1 0-3.248 3.608l9.213 8.295a2.418 2.418 0 0 0 1.623.623 2.426 2.426 0 0 0 1.625-4.231Zm0 0" fill-rule="evenodd" fill="url(&quot;#h&quot;)" transform="translate(-2027.292 -901.21)" data-name="Path 27"/></g><defs><linearGradient x1=".425" y1=".072" x2="1.437" y2="1.065" id="a"><stop stop-color="#c898ff" offset="0"/><stop stop-color="#72a1ff" offset="1"/></linearGradient><linearGradient x1=".425" y1=".072" x2="1.437" y2="1.065" id="b"><stop stop-color="#c898ff" offset="0"/><stop stop-color="#72a1ff" offset="1"/></linearGradient><linearGradient x1=".425" y1=".072" x2="1.437" y2="1.065" id="c"><stop stop-color="#c898ff" offset="0"/><stop stop-color="#72a1ff" offset="1"/></linearGradient><linearGradient x1=".425" y1=".072" x2="1.437" y2="1.065" id="d"><stop stop-color="#c898ff" offset="0"/><stop stop-color="#72a1ff" offset="1"/></linearGradient><linearGradient x1=".425" y1=".072" x2="1.437" y2="1.065" id="e"><stop stop-color="#c898ff" offset="0"/><stop stop-color="#72a1ff" offset="1"/></linearGradient><linearGradient x1=".425" y1=".072" x2="1.437" y2="1.065" id="f"><stop stop-color="#c898ff" offset="0"/><stop stop-color="#72a1ff" offset="1"/></linearGradient><linearGradient x1=".425" y1=".072" x2="1.437" y2="1.065" id="g"><stop stop-color="#c898ff" offset="0"/><stop stop-color="#72a1ff" offset="1"/></linearGradient><linearGradient x1=".425" y1=".072" x2="1.437" y2="1.065" id="h"><stop stop-color="#c898ff" offset="0"/><stop stop-color="#72a1ff" offset="1"/></linearGradient></defs></svg>