<svg xmlns="http://www.w3.org/2000/svg" width="60" height="60" viewBox="712 442 60 60"><path d="m772 496.717-12.453-12.453c3.396-4.528 5.283-9.811 5.283-15.849 0-14.717-11.698-26.415-26.415-26.415C723.698 442 712 453.698 712 468.415c0 14.717 11.698 26.415 26.415 26.415 6.038 0 11.32-1.887 15.85-5.283L766.716 502l5.283-5.283Zm-52.453-28.302c0-10.566 8.302-18.868 18.868-18.868 10.566 0 18.868 8.302 18.868 18.868 0 10.566-8.302 18.868-18.868 18.868-10.566 0-18.868-8.302-18.868-18.868Z" fill="#5d5d5d" fill-rule="evenodd" data-name="Path 208"/></svg>