<svg xmlns="http://www.w3.org/2000/svg" width="19.659" height="16.193"><path d="M19.585 1.94c-.624.284-1.312.455-1.985.568.32-.054.791-.633.98-.867A3.66 3.66 0 0 0 19.24.437c.017-.034.03-.078-.004-.104-.044-.017-.071-.008-.105.009-.753.404-1.531.696-2.36.903a.157.157 0 0 1-.162-.043c-.068-.078-.133-.15-.206-.211a4.175 4.175 0 0 0-1.143-.7A3.979 3.979 0 0 0 13.51.008c-.58.038-1.149.201-1.663.47-.515.27-.975.644-1.341 1.096a4.131 4.131 0 0 0-.801 1.604c-.138.565-.127 1.123-.043 1.694.013.094.005.107-.081.094C6.34 4.484 3.655 3.325 1.474.841 1.38.733 1.33.733 1.251.849c-.954 1.43-.49 3.727.7 4.857.16.15.323.3.499.438-.065.013-.857-.073-1.564-.438-.095-.06-.143-.026-.15.081-.01.155.004.297.025.465.183 1.449 1.187 2.79 2.561 3.313.163.068.344.129.52.159-.313.068-.636.118-1.534.047-.112-.021-.154.035-.112.142.675 1.84 2.132 2.387 3.223 2.7.147.024.292.024.439.06-.009.012-.017.012-.026.025-.362.552-1.617.962-2.2 1.167-1.064.371-2.22.538-3.344.427-.18-.026-.218-.024-.266 0-.05.03-.007.074.051.12.228.151.46.285.696.413.714.378 1.458.68 2.235.894 4.016 1.11 8.54.295 11.555-2.701 2.368-2.354 3.198-5.598 3.198-8.846 0-.128.15-.198.24-.265.616-.463 1.106-1.017 1.565-1.636.104-.139.097-.262.097-.313v-.017c0-.052.007-.036-.074 0Z" fill-rule="evenodd" data-name="Path 39"/></svg>