<svg xmlns="http://www.w3.org/2000/svg" width="108" height="92.18" viewBox="650.377 4749.318 108 92.18"><g data-name="CompositeLayer"><path d="M758.149 4819.305a2.127 2.127 0 0 0-1.7-1.157l-5.911-.548-3.912-4.554a2.122 2.122 0 0 0-3.58.586l-2.184 5.394-5.394 2.18a2.124 2.124 0 0 0-.59 3.579l4.557 3.918.548 5.906a2.12 2.12 0 0 0 2.115 1.927c.38 0 .76-.101 1.097-.305l4.98-3.004 5.754 1.447a2.124 2.124 0 0 0 2.579-2.576l-1.44-5.755 3.004-4.983a2.124 2.124 0 0 0 .077-2.055Zm-7.419 7.213.794 3.17-3.17-.797a2.128 2.128 0 0 0-1.614.241l-2.84 1.713-.315-3.39a2.122 2.122 0 0 0-.73-1.414l-2.563-2.204 2.996-1.21a2.12 2.12 0 0 0 1.173-1.172l1.213-2.997 2.2 2.562c.359.417.866.679 1.416.73l3.394.316-1.712 2.839a2.125 2.125 0 0 0-.242 1.613Zm0 0" fill-rule="evenodd" data-name="Path 35"/><path d="m717.611 4765.248 6.605 5.675.793 8.577a2.122 2.122 0 0 0 2.115 1.928c.381 0 .76-.101 1.097-.303l7.247-4.368 8.36 2.097a2.124 2.124 0 0 0 2.578-2.577l-2.099-8.366 4.368-7.242a2.125 2.125 0 0 0-1.623-3.211l-8.572-.794-5.68-6.606a2.125 2.125 0 0 0-3.58.588l-3.177 7.845-7.846 3.177a2.126 2.126 0 0 0-.586 3.58Zm10.86-3.156a2.123 2.123 0 0 0 1.172-1.173l2.207-5.45 3.97 4.616c.359.417.865.68 1.414.73l6.053.56-3.074 5.098a2.127 2.127 0 0 0-.242 1.614l1.451 5.783-5.777-1.45a2.126 2.126 0 0 0-1.614.242l-5.104 3.075-.56-6.06a2.12 2.12 0 0 0-.732-1.417l-4.612-3.962 5.449-2.206Zm0 0" fill-rule="evenodd" data-name="Path 32"/><path d="m665.116 4767.911-2.098 8.366a2.123 2.123 0 0 0 2.577 2.577l8.36-2.097 7.241 4.367a2.126 2.126 0 0 0 3.212-1.624l.794-8.576 6.61-5.675a2.122 2.122 0 0 0-.587-3.58l-7.85-3.179-3.171-7.843a2.124 2.124 0 0 0-3.58-.59l-5.681 6.607-8.57.794a2.119 2.119 0 0 0-1.7 1.156 2.12 2.12 0 0 0 .075 2.055l4.368 7.242Zm7.074-7.096a2.13 2.13 0 0 0 1.415-.73l3.968-4.614 2.201 5.447c.216.534.639.957 1.173 1.174l5.452 2.206-4.616 3.962c-.418.36-.681.867-.733 1.416l-.56 6.06-5.097-3.074a2.12 2.12 0 0 0-1.615-.241l-5.776 1.45 1.45-5.784c.137-.548.05-1.13-.241-1.614l-3.075-5.098 6.054-.56Zm0 0" fill-rule="evenodd" data-name="Path 30"/><path d="m673.28 4821.205-5.388-2.179-2.184-5.394a2.123 2.123 0 0 0-3.58-.587l-3.912 4.555-5.91.548a2.127 2.127 0 0 0-1.624 3.212l3.004 4.98-1.445 5.755a2.124 2.124 0 0 0 2.577 2.579l5.76-1.447 4.981 3.004a2.118 2.118 0 0 0 2.056.077 2.123 2.123 0 0 0 1.156-1.701l.544-5.906 4.554-3.916a2.125 2.125 0 0 0-.588-3.58Zm-7.388 4.836c-.417.36-.679.867-.73 1.416l-.31 3.386-2.837-1.71a2.123 2.123 0 0 0-1.615-.242l-3.174.798.797-3.17c.138-.549.051-1.13-.242-1.614l-1.711-2.839 3.394-.315a2.127 2.127 0 0 0 1.416-.731l2.199-2.562 1.214 2.997c.216.534.64.956 1.172 1.172l2.991 1.21-2.564 2.204Zm0 0" fill-rule="evenodd" data-name="Path 33"/><path d="m728.369 4814.133 15.895-19.137a2.124 2.124 0 0 0-1.123-3.419l-24.645-6.104a2.125 2.125 0 0 0-1.022 4.125l21.358 5.288-14.28 17.193a2.13 2.13 0 0 0-.485 1.518l1.699 22.46-20.229-8.568a2.122 2.122 0 0 0-1.657 0l-20.222 8.568 1.699-22.46a2.129 2.129 0 0 0-.485-1.518l-14.28-17.192 18.774-4.645 2.587-.644a2.129 2.129 0 0 0 1.308-.97l9.553-15.95 1.896-3.17 1.153 1.927a2.125 2.125 0 0 0 3.646-2.181l-2.977-4.974a2.123 2.123 0 0 0-3.646.001l-3.718 6.215-9.098 15.192-1.73.431-22.057 5.458a2.123 2.123 0 0 0-1.124 3.419l15.895 19.137-1.895 25.08a2.124 2.124 0 0 0 2.947 2.116l22.603-9.577 22.61 9.577a2.113 2.113 0 0 0 2.067-.23 2.124 2.124 0 0 0 .879-1.885l-1.896-25.08Zm0 0" fill-rule="evenodd" data-name="Path 29"/></g></svg>