<svg xmlns="http://www.w3.org/2000/svg" width="108" height="84.164"><path d="M105.889 39.974h-6.421V25.987c0-2.222-1.81-4.03-4.036-4.03h-6.11a4.037 4.037 0 0 0-4.037 4.03v13.987h-5.01v-25.03a4.035 4.035 0 0 0-4.03-4.031h-6.116a4.036 4.036 0 0 0-4.03 4.03v25.031h-5.01v-9a2.11 2.11 0 1 0-4.222 0v48.969h-5.734V4.22h5.735l.04 7.821c.007 1.162.95 2.1 2.112 2.1h.01a2.111 2.111 0 0 0 2.1-2.122L61.09 4.02C61.075 1.803 59.268 0 57.059 0h-6.117a4.034 4.034 0 0 0-4.03 4.03v35.944h-5.016v-25.03a4.035 4.035 0 0 0-4.03-4.031h-6.11a4.038 4.038 0 0 0-4.037 4.03v25.031h-5.01V25.987a4.034 4.034 0 0 0-4.03-4.03h-6.117a4.034 4.034 0 0 0-4.03 4.03v13.987h-6.42a2.11 2.11 0 1 0 0 4.222h6.42v13.98a4.035 4.035 0 0 0 4.03 4.03h6.117a4.034 4.034 0 0 0 4.03-4.03v-13.98h5.01v25.025a4.038 4.038 0 0 0 4.036 4.03h6.11a4.035 4.035 0 0 0 4.03-4.03V44.196h5.017v35.938a4.034 4.034 0 0 0 4.03 4.03h6.117a4.034 4.034 0 0 0 4.03-4.03V44.196h5.01V69.22a4.036 4.036 0 0 0 4.03 4.031h6.116a4.035 4.035 0 0 0 4.03-4.03V44.195h5.01v13.98c0 2.223 1.81 4.03 4.036 4.03h6.11a4.037 4.037 0 0 0 4.037-4.03v-13.98h6.42a2.11 2.11 0 1 0 0-4.222Zm-87.401 18.01h-5.735V26.18h5.735v31.806ZM37.674 69.03H31.94V15.135h5.733v53.894Zm38.38 0H70.32V15.135h5.734v53.894Zm19.192-11.044h-5.74V26.179h5.74v31.806Zm0 0" fill-rule="evenodd" data-name="Path 2"/></svg>