<svg xmlns="http://www.w3.org/2000/svg" width="68" height="90.667" viewBox="922 3380 68 90.667"><g data-name="Group 13"><path d="M988.653 3400.887c-.826-.677-1.922-.939-3.01-.72l-6.696 1.337v-15.006c0-3.583-2.913-6.498-6.493-6.498h-43.927c-3.58 0-6.492 2.915-6.492 6.498v27.352a1.786 1.786 0 1 0 3.572 0v-27.352a2.927 2.927 0 0 1 2.92-2.927h9.198v2.174a5.005 5.005 0 0 0 4.998 5.002h15.535c2.757 0 5-2.243 5-5.002v-2.174h9.196c1.611 0 2.921 1.314 2.921 2.927v15.718l-13.482 2.691c-2.053.405-3.661 2.413-3.661 4.573v25.653c-1.565-.97-3.487-1.455-5.483-1.348-4.884.26-8.859 3.973-8.859 8.276 0 1.946.804 3.78 2.265 5.166 1.599 1.516 3.85 2.362 6.242 2.362.18 0 .36-.004.542-.014 4.888-.26 8.865-3.974 8.865-8.276v-22.341l.034.001c.248 0 .499-.025.749-.076l12.788-2.55v7.296c-2.004 1.54-3.288 3.793-3.288 6.239 0 1.943.803 3.775 2.263 5.16.317.3.66.574 1.025.82v23.932h-49.768v-29.998a1.786 1.786 0 0 0-3.572 0v34.388c0 3.582 2.913 6.497 6.492 6.497h43.927c3.58 0 6.493-2.915 6.493-6.497v-26.918a9.952 9.952 0 0 0 2.188.124c4.888-.26 8.865-3.972 8.865-8.276v-25.245c0-1.185-.491-2.267-1.347-2.968Zm-28.967-15.142c0 .79-.64 1.43-1.427 1.43h-15.536a1.43 1.43 0 0 1-1.427-1.43v-2.174h18.39v2.174Zm12.768 81.35h-43.927a2.927 2.927 0 0 1-2.92-2.925v-.819h49.768v.819a2.926 2.926 0 0 1-2.92 2.926Zm-19.705-21.087c-1.618.087-3.125-.415-4.137-1.374-.525-.497-1.15-1.348-1.15-2.573 0-2.395 2.508-4.552 5.477-4.71.12-.006.24-.01.358-.01 1.482 0 2.848.496 3.785 1.386.525.497 1.15 1.348 1.15 2.572 0 2.394-2.51 4.551-5.483 4.709Zm9.137-30.627a.297.297 0 0 1-.049.007.459.459 0 0 1-.033-.193v-5.715c0-.492.428-.999.78-1.068l.004-.001 23.757-4.742a.3.3 0 0 1 .05-.006.46.46 0 0 1 .034.192v5.715c0 .494-.433 1.003-.784 1.074l-8.838 1.762a.118.118 0 0 0-.01.002l-14.91 2.973Zm17.06.24 7.4-1.475c.028-.006.055-.015.083-.021v8.809c-1.565-.969-3.489-1.451-5.485-1.343-.687.036-1.355.144-1.997.309v-6.279Zm2 18.189c-1.617.087-3.127-.415-4.139-1.374-.524-.497-1.148-1.347-1.148-2.568 0-1.48.906-2.84 2.294-3.716.086-.042.168-.09.244-.146a6.68 6.68 0 0 1 2.94-.849h.001c.123-.007.244-.01.365-.01 1.48 0 2.84.494 3.774 1.38.526.497 1.152 1.346 1.152 2.573 0 2.436-2.46 4.549-5.483 4.71Zm0 0" fill-rule="evenodd" data-name="Path 4"/><path d="M923.786 3423.605c.986 0 1.786-.8 1.786-1.786v-.035a1.786 1.786 0 1 0-3.572 0v.035c0 .986.8 1.786 1.786 1.786Zm0 0" fill-rule="evenodd" data-name="Path 5"/></g></svg>