<svg xmlns="http://www.w3.org/2000/svg" width="20" height="20" viewBox="562.95 151.951 20 20"><g data-name="invite"><path d="m582.454 159.315-2.497-2.088v-1.103c0-.84-.683-1.523-1.522-1.523h-1.62l-2.545-2.128a1.945 1.945 0 0 0-2.54 0l-2.545 2.128h-1.62c-.839 0-1.522.683-1.522 1.523v1.103l-2.497 2.088a1.525 1.525 0 0 0-.546 1.169v9.559a1.96 1.96 0 0 0 1.957 1.958h16.086a1.96 1.96 0 0 0 1.957-1.958v-9.56c0-.453-.202-.88-.546-1.168Zm-2.497-.387 1.373 1.149-1.373 1.148v-2.297Zm-7.388-5.456.007-.005a.648.648 0 0 1 .848 0l.007.005 1.35 1.129h-3.561l1.35-1.129Zm-5.221 4.056v-1.404c0-.12.097-.218.217-.218h10.87c.12 0 .217.098.217.218v6.192l-5.221 4.365a.648.648 0 0 1-.855.005l-.007-.005-5.221-4.365v-4.788Zm-1.305 1.4v2.297l-1.373-1.148 1.373-1.149Zm15.653 11.115c0 .36-.293.652-.653.652h-16.086a.653.653 0 0 1-.653-.652v-8.57l7.426 6.207c.736.63 1.803.63 2.54 0l5.45-4.555 1.976-1.653v8.57Z" fill="#2f2f2f" fill-rule="evenodd"/><path d="m582.454 159.315-2.497-2.088v-1.103c0-.84-.683-1.523-1.522-1.523h-1.62l-2.545-2.128a1.945 1.945 0 0 0-2.54 0l-2.545 2.128h-1.62c-.839 0-1.522.683-1.522 1.523v1.103l-2.497 2.088a1.525 1.525 0 0 0-.546 1.169v9.559a1.96 1.96 0 0 0 1.957 1.958h16.086a1.96 1.96 0 0 0 1.957-1.958v-9.56c0-.453-.202-.88-.546-1.168Zm-2.497-.387 1.373 1.149-1.373 1.148v-2.297Zm-7.388-5.456.007-.005a.648.648 0 0 1 .848 0l.007.005 1.35 1.129h-3.561l1.35-1.129Zm-5.221 4.056s0 0 0 0v-1.404c0-.12.097-.218.217-.218h9.013s0 0 0 0 0 0 0 0h1.857c.12 0 .217.098.217.218v1.404s0 0 0 0v4.788l-5.221 4.365a.648.648 0 0 1-.855.005l-.007-.005-5.221-4.365v-4.788Zm-1.305 1.4v2.297l-1.373-1.148 1.373-1.149Zm15.653 11.115c0 .36-.293.652-.653.652h-16.086a.653.653 0 0 1-.653-.652v-8.57l7.426 6.207c.736.63 1.803.63 2.54 0l5.45-4.555s0 0 0 0l1.976-1.653v8.57Z" stroke-linejoin="round" stroke-linecap="round" stroke-width=".1" stroke="#2f2f2f" fill="transparent"/></g></svg>