<svg xmlns="http://www.w3.org/2000/svg" width="20" height="20" viewBox="935 -280 20 20"><path d="M945-278.222c2.667 0 3 0 4 .11 1 0 1.556.223 1.889.334.444.222.778.445 1.111.778.333.333.556.667.778 1.111.11.333.333.889.333 1.889s.111 1.333.111 4 0 3-.11 4c0 1-.223 1.556-.334 1.889-.222.444-.445.778-.778 1.111-.333.333-.667.556-1.111.778-.333.11-.889.333-1.889.333s-1.333.111-4 .111-3 0-4-.11c-1 0-1.556-.223-1.889-.334-.444-.222-.778-.445-1.111-.778-.333-.333-.556-.667-.778-1.111-.11-.333-.333-.889-.333-1.889s-.111-1.333-.111-4 0-3 .11-4c0-1 .223-1.556.334-1.889.222-.444.445-.778.778-1.111.333-.444.667-.667 1.111-.778.333-.11.889-.333 1.889-.333 1-.111 1.333-.111 4-.111m0-1.778c-2.667 0-3.111 0-4.111.111-1.111 0-1.778.222-2.445.445a4.35 4.35 0 0 0-1.777 1.11 4.35 4.35 0 0 0-1.111 1.778c-.334.667-.445 1.334-.445 2.445-.111 1-.111 1.444-.111 4.111s0 3.111.111 4.111c0 1.111.222 1.778.445 2.445a4.35 4.35 0 0 0 1.11 1.777 4.35 4.35 0 0 0 1.778 1.111c.667.223 1.334.445 2.445.445 1 .111 1.444.111 4.111.111s3.111 0 4.111-.111c1.111 0 1.778-.222 2.445-.445a4.35 4.35 0 0 0 1.777-1.11 4.35 4.35 0 0 0 1.111-1.778c.223-.667.445-1.334.445-2.445 0-1.111.111-1.444.111-4.111s0-3.111-.111-4.111c0-1.111-.222-1.778-.445-2.445a4.35 4.35 0 0 0-1.11-1.777 4.35 4.35 0 0 0-1.778-1.111c-.667-.223-1.334-.445-2.445-.445-1-.111-1.444-.111-4.111-.111m0 4.889c-2.889 0-5.111 2.222-5.111 5.111a5.097 5.097 0 0 0 5.111 5.111 5.097 5.097 0 0 0 5.111-5.111 5.097 5.097 0 0 0-5.111-5.111m0 8.444c-1.889 0-3.333-1.444-3.333-3.333 0-1.889 1.444-3.333 3.333-3.333 1.889 0 3.333 1.444 3.333 3.333 0 1.889-1.444 3.333-3.333 3.333m5.333-9.889c-.666 0-1.222.556-1.222 1.223 0 .666.556 1.222 1.222 1.222.667 0 1.223-.556 1.223-1.222 0-.667-.556-1.223-1.223-1.223" fill="#2f2f2f" fill-rule="evenodd" data-name="Path 3"/></svg>