<svg xmlns="http://www.w3.org/2000/svg" width="21.648" height="21.648" viewBox="14.929 5.357 21.648 21.648"><path d="M34.257 5.357H17.248a2.32 2.32 0 0 0-2.32 2.32v17.009a2.32 2.32 0 0 0 2.32 2.319h6.632v-7.36h-3.044v-3.464h3.044v-2.64c0-3.003 1.788-4.662 4.526-4.662 1.312 0 2.683.234 2.683.234v2.947h-1.51c-1.49 0-1.954.924-1.954 1.872v2.25h3.323l-.531 3.463h-2.792v7.36h6.632a2.32 2.32 0 0 0 2.32-2.32V7.678a2.32 2.32 0 0 0-2.32-2.32Z" fill="#37489e" fill-rule="evenodd" data-name="Icon awesome-facebook-square"/></svg>