<svg xmlns="http://www.w3.org/2000/svg" width="17.537" height="11.723"><path d="M17.537 5.155v6.286a.28.28 0 0 1-.28.282H14.01a.281.281 0 0 1-.28-.282V5.595c0-1.54-.55-2.59-1.93-2.59-1.051 0-1.677.708-1.952 1.393-.101.244-.126.584-.126.928v6.115a.282.282 0 0 1-.282.282H6.195a.28.28 0 0 1-.28-.282c.007-1.557.04-9.112.006-10.887a.28.28 0 0 1 .281-.285H9.44c.156 0 .282.126.282.282v1.341l-.026.038h.026v-.038C10.228 1.114 11.13 0 13.154 0c2.505 0 4.383 1.637 4.383 5.155ZM.281 11.723h3.245a.281.281 0 0 0 .281-.282V.551a.282.282 0 0 0-.28-.282H.28A.282.282 0 0 0 0 .55v10.89c0 .156.126.282.281.282Z" fill-rule="evenodd" data-name="Path 47"/></svg>