<svg xmlns="http://www.w3.org/2000/svg" width="13.843" height="21.429" viewBox="15.466 5.219 13.843 21.429"><path d="M15.466 22.749c0-1.243.635-2.35 1.907-3.321 1.271-.972 2.807-1.458 4.607-1.458h1.158c-.6-.571-.901-1.186-.901-1.843 0-.415.115-.828.343-1.243-.143.014-.35.021-.622.021-1.485 0-2.7-.464-3.642-1.392-.943-.93-1.414-2.072-1.414-3.43 0-1.299.586-2.435 1.757-3.406 1.171-.972 2.507-1.458 4.007-1.458h6.643l-1.478 1.072h-2.1c.67.257 1.196.743 1.575 1.457.378.714.567 1.507.567 2.379 0 1.328-.628 2.486-1.885 3.471-.528.415-.872.743-1.028.986-.157.243-.236.543-.236.9 0 .271.192.614.578 1.029.386.414.771.764 1.158 1.049.871.615 1.475 1.243 1.81 1.886.336.643.504 1.45.504 2.421 0 1.286-.585 2.404-1.757 3.354-1.172.95-2.757 1.425-4.757 1.425-1.9 0-3.508-.357-4.823-1.071-1.313-.713-1.971-1.657-1.971-2.828Zm2.4-.707c0 .986.418 1.826 1.254 2.519.835.692 1.875 1.038 3.117 1.038 1.7 0 2.932-.314 3.697-.942.765-.628 1.147-1.464 1.147-2.507 0-.271-.03-.5-.086-.686a3.48 3.48 0 0 0-.15-.44 1.605 1.605 0 0 0-.258-.406 9.798 9.798 0 0 0-.3-.342 3.162 3.162 0 0 0-.417-.354 27.291 27.291 0 0 0-.975-.697 16.991 16.991 0 0 0-.557-.375 5.567 5.567 0 0 0-1.65-.257h-.086c-1.243 0-2.336.336-3.279 1.008-.97.684-1.457 1.499-1.457 2.441Zm1.414-11.979c.157 1.129.59 2.1 1.297 2.915.707.814 1.49 1.228 2.347 1.242h.085c.8 0 1.442-.371 1.93-1.114.385-.6.577-1.307.577-2.121 0-.229-.014-.472-.043-.729-.142-1.129-.567-2.086-1.274-2.872-.706-.785-1.49-1.192-2.346-1.221h-.086c-.815 0-1.465.364-1.95 1.093-.386.586-.579 1.286-.579 2.1 0 .228.014.464.042.707Z" fill="#fff" fill-rule="evenodd" data-name="Icon zocial-google"/></svg>