<svg xmlns="http://www.w3.org/2000/svg" width="34.999" height="35.001" viewBox="1802 538 34.999 35.001"><g data-name="Union 1"><path d="M1817 573.001a1 1 0 0 1-1-1v-13h-13a1 1 0 0 1-1-1v-5a1 1 0 0 1 1-1h13V539a1 1 0 0 1 1-1h5a1 1 0 0 1 1 1v13h13a1 1 0 0 1 1 1v5a1 1 0 0 1-1 1h-13v13.001a1 1 0 0 1-1 1h-5Z" fill="#727c8e" fill-rule="evenodd"/><path d="M-1380 35.001a1 1 0 0 1-1-1v-13h-13a1 1 0 0 1-1-1v-5a1 1 0 0 1 1-1h13V1a1 1 0 0 1 1-1h5a1 1 0 0 1 1 1v13h13a1 1 0 0 1 1 1v5a1 1 0 0 1-1 1h-13v13.001a1 1 0 0 1-1 1h-5Z" stroke-linejoin="round" stroke-linecap="round" stroke="#727c8e" fill="transparent" transform="matrix(.97143 0 0 .97143 3157.642 538.5)"/></g></svg>